<?xml version="1.0" encoding="UTF-8" standalone="no"?>

<svg
   version="1.1"
   id="svg1"
   width="792.88733"
   height="166.51866"
   viewBox="0 0 792.88733 166.51866"
   xmlns="http://www.w3.org/2000/svg"
   xmlns:svg="http://www.w3.org/2000/svg">
  <defs
     id="defs1">
    <clipPath
       clipPathUnits="userSpaceOnUse"
       id="clipPath2">
      <path
         d="M 0,131.915 H 612 V 0 H 0 Z"
         transform="translate(-130.51851,-92.268302)"
         id="path2" />
    </clipPath>
    <clipPath
       clipPathUnits="userSpaceOnUse"
       id="clipPath6">
      <path
         d="m 379.821,45.51 v -0.929 c 0.927,-0.136 2.135,-0.045 2.62,-1.205 v 0 c 0.4,-0.972 0.4,-3.799 0.4,-4.959 v 0 -17.8 c 0,-3.059 0.203,-4.171 -2.82,-4.402 v 0 -0.927 c 1.492,0.045 2.943,0.137 4.435,0.186 v 0 c 1.531,-0.049 3.062,-0.141 4.635,-0.186 v 0 0.927 c -3.185,0.231 -2.742,1.62 -2.823,4.68 v 0 26.099 z m -162.553,0 v -0.929 c 0.927,-0.136 2.137,-0.045 2.621,-1.205 v 0 c 0.402,-0.972 0.402,-3.799 0.402,-4.959 v 0 -17.8 c 0,-3.059 0.202,-4.171 -2.821,-4.402 v 0 -0.927 c 1.531,0.045 3.104,0.137 4.636,0.186 v 0 c 1.489,-0.049 2.941,-0.141 4.434,-0.186 v 0 0.927 c -3.146,0.231 -2.823,1.62 -2.823,4.68 v 0 5.101 c 0,1.714 0.081,3.567 0.726,5.05 v 0 c 0.805,1.854 2.782,3.245 4.513,3.245 v 0 c 3.427,0 3.669,-3.848 3.669,-6.813 v 0 -6.861 c 0,-3.059 0.242,-4.171 -2.78,-4.402 v 0 -0.927 c 1.369,0.045 2.86,0.137 4.312,0.186 v 0 c 1.572,-0.049 3.103,-0.141 4.674,-0.186 v 0 0.927 c -3.144,0.231 -2.781,1.62 -2.781,4.68 v 0 8.389 c 0,4.407 -2.217,6.492 -6.044,6.492 v 0 c -2.581,0 -4.839,-1.485 -6.208,-3.987 v 0 h -0.081 v 15.205 z m -32.527,0 v -0.929 c 0.926,-0.136 2.137,-0.045 2.619,-1.205 v 0 c 0.402,-0.972 0.402,-3.799 0.402,-4.959 v 0 -17.8 c 0,-3.059 0.204,-4.171 -2.818,-4.402 v 0 -0.927 c 1.489,0.045 2.942,0.137 4.432,0.186 v 0 c 1.533,-0.049 3.064,-0.141 4.635,-0.186 v 0 0.927 c -3.183,0.231 -2.74,1.62 -2.82,4.68 v 0 26.099 z m -21.522,0 v -0.929 c 0.966,-0.136 2.097,-0.136 2.619,-1.205 v 0 c 0.442,-0.881 0.442,-3.336 0.442,-4.401 v 0 -18.358 c 0,-3.059 0.204,-4.171 -2.82,-4.402 v 0 -0.927 c 1.572,0.045 3.063,0.137 4.555,0.186 v 0 c 1.49,-0.049 3.023,-0.141 4.513,-0.186 v 0 0.927 c -3.183,0.231 -2.82,1.62 -2.82,4.68 v 0 2.874 l 0.804,0.927 7.66,-9.408 c 0.846,0.045 1.652,0.137 2.499,0.186 v 0 c 0.807,-0.049 1.654,-0.141 2.457,-0.186 v 0 0.927 c -1.45,0.278 -1.731,0.974 -2.78,2.086 v 0 l -7.739,8.713 3.708,4.775 c 1.411,1.761 1.815,2.55 3.991,2.641 v 0 0.927 c -1.129,-0.045 -2.299,-0.139 -3.426,-0.184 v 0 c -1.17,0.045 -2.377,0.139 -3.547,0.184 v 0 -0.927 c 0.646,0 2.135,-0.045 2.135,-1.157 v 0 c 0,-1.021 -2.416,-3.941 -3.062,-4.729 v 0 l -2.7,-3.292 v 21.742 z m 360.57,-1.484 c 0,-1.438 1.05,-2.458 2.258,-2.458 v 0 c 1.129,0 2.058,1.115 2.058,2.458 v 0 c 0,1.392 -0.929,2.502 -2.139,2.502 v 0 c -1.208,0 -2.177,-1.11 -2.177,-2.502 m -129.782,0 c 0,-1.438 1.047,-2.458 2.259,-2.458 v 0 c 1.127,0 2.054,1.115 2.054,2.458 v 0 c 0,1.392 -0.927,2.502 -2.135,2.502 v 0 c -1.21,0 -2.178,-1.11 -2.178,-2.502 M 130.088,30.535 c 0,-9.315 6.77,-15.759 14.63,-15.759 v 0 c 8.142,0 14.631,6.584 14.631,16.086 v 0 c 0,9.178 -6.77,15.666 -14.47,15.666 v 0 c -7.779,0 -14.791,-6.767 -14.791,-15.993 m 5.037,0 c 0,6.861 2.619,14.742 9.593,14.742 v 0 c 7.095,0 9.592,-7.649 9.592,-14.601 v 0 c 0,-6.907 -2.176,-14.649 -9.35,-14.649 v 0 c -7.336,0 -9.835,7.233 -9.835,14.508 m 323.451,15.253 c -1.933,0.046 -3.867,0.139 -5.8,0.184 v 0 -1.066 c 1.288,0 2.94,0 3.465,-1.575 v 0 c 0.402,-1.252 0.402,-4.684 0.402,-6.166 v 0 -13.071 c 0,-1.482 0,-4.914 -0.402,-6.166 v 0 c -0.525,-1.576 -2.177,-1.576 -3.465,-1.576 v 0 -1.064 c 2.013,0.045 4.068,0.137 6.083,0.186 v 0 c 1.936,-0.049 3.91,-0.141 5.804,-0.186 v 0 1.064 c -1.29,0 -2.942,0 -3.465,1.576 v 0 c -0.403,1.252 -0.403,4.684 -0.403,6.166 v 0 13.071 c 0,1.482 0,4.914 0.403,6.166 v 0 c 0.523,1.575 2.175,1.575 3.465,1.575 v 0 1.066 c -2.014,-0.045 -4.03,-0.138 -6.087,-0.184 m -120.028,0 c -2.016,0.046 -4.032,0.139 -6.086,0.184 v 0 -1.066 c 1.289,0 2.943,0.047 3.424,-1.575 v 0 c 0.365,-1.252 0.365,-4.684 0.365,-6.211 v 0 -13.026 c 0,-1.482 0,-4.914 -0.365,-6.166 v 0 c -0.442,-1.576 -2.135,-1.576 -3.424,-1.576 v 0 -1.064 c 2.015,0.045 3.95,0.137 5.924,0.186 v 0 c 2.097,-0.049 4.193,-0.141 6.286,-0.186 v 0 1.064 c -1.408,0.094 -3.305,-0.233 -3.867,1.576 v 0 c -0.403,1.252 -0.403,4.684 -0.403,6.166 v 0 5.609 c 0.162,0 1.974,-0.14 2.701,-0.14 v 0 c 4.796,0 10.477,1.622 10.477,8.389 v 0 c 0,5.888 -4.916,7.836 -9.269,8.02 v 0 c -1.935,-0.045 -3.828,-0.138 -5.763,-0.184 m 1.854,-14.832 V 42.45 c 0,1.159 -0.042,1.668 0.28,1.901 v 0 c 0.404,0.277 2.016,0.277 2.502,0.277 v 0 c 3.909,0 5.762,-2.316 5.762,-6.813 v 0 c 0,-5.006 -2.055,-7.047 -6.205,-7.047 v 0 c -0.767,0 -1.574,0.141 -2.339,0.188 m 237.034,9.453 c -0.846,-2.641 -2.861,-4.495 -4.876,-5.839 v 0 -0.834 h 2.057 V 19.552 c 0,-3.477 1.973,-4.776 4.876,-4.776 v 0 c 1.933,0 3.949,0.743 4.674,2.968 v 0 l -0.725,0.602 c -0.766,-1.157 -1.489,-2.086 -2.902,-2.086 v 0 c -2.134,0 -2.499,2.18 -2.499,4.265 v 0 13.211 h 4.597 v 1.251 h -4.597 v 5.422 z m -37.885,0 c -0.846,-2.641 -2.86,-4.495 -4.876,-5.839 v 0 -0.834 h 2.054 V 19.552 c 0,-3.477 1.976,-4.776 4.877,-4.776 v 0 c 1.935,0 3.95,0.743 4.675,2.968 v 0 l -0.725,0.602 c -0.765,-1.157 -1.491,-2.086 -2.902,-2.086 v 0 c -2.136,0 -2.498,2.18 -2.498,4.265 v 0 13.211 h 4.592 v 1.251 h -4.592 v 5.422 z m -25.796,0 c -0.846,-2.641 -2.862,-4.495 -4.879,-5.839 v 0 -0.834 h 2.057 V 19.552 c 0,-3.477 1.976,-4.776 4.878,-4.776 v 0 c 1.935,0 3.95,0.743 4.676,2.968 v 0 l -0.726,0.602 c -0.766,-1.157 -1.492,-2.086 -2.904,-2.086 v 0 c -2.134,0 -2.497,2.18 -2.497,4.265 v 0 13.211 h 4.594 v 1.251 h -4.594 v 5.422 z m 72.308,-15.664 c 0,-5.935 4.11,-9.969 9.11,-9.969 v 0 c 3.02,0 5.279,1.251 7.173,3.941 v 0 l -0.845,0.974 c -1.212,-1.856 -3.024,-3.431 -5.079,-3.431 v 0 c -4.314,0 -6.329,4.914 -6.329,9.317 v 0 l 0.161,2.224 h 11.569 c 0.402,0 1.008,-0.184 1.008,0.418 v 0 c 0,5.006 -3.75,7.557 -7.701,7.557 v 0 c -5.238,0 -9.067,-5.241 -9.067,-11.031 m 9.11,9.964 c 2.539,0 3.908,-1.854 3.908,-4.729 v 0 c 0,-1.157 -1.331,-0.928 -1.974,-0.928 v 0 h -6.651 c 0.482,3.015 1.693,5.657 4.717,5.657 m -73.396,-0.37 v -0.927 c 0.804,0.046 2.497,0.138 2.778,-1.021 v 0 c 0.164,-0.696 0.164,-4.263 0.164,-5.144 v 0 -6.63 c -0.042,-3.059 0.201,-4.171 -2.781,-4.402 v 0 -0.927 c 1.57,0.045 3.143,0.137 4.716,0.186 v 0 c 1.451,-0.049 2.94,-0.141 4.311,-0.186 v 0 0.927 c -3.183,0.231 -2.741,1.62 -2.822,4.68 v 0 14.881 z m -28.456,-4.127 c 0,-3.476 2.497,-5.006 4.834,-6.397 v 0 c 1.735,-1.02 4.073,-2.085 4.073,-4.729 v 0 c 0,-2.224 -1.611,-3.242 -3.386,-3.242 v 0 c -2.983,0 -4.351,2.918 -4.998,5.886 v 0 h -0.804 l 0.159,-6.629 h 0.403 l 1.008,1.345 c 1.208,-1.113 2.902,-1.67 4.434,-1.67 v 0 c 3.105,0 5.923,2.319 5.923,6.119 v 0 c 0,4.174 -2.537,5.379 -5.319,7.046 v 0 c -1.53,0.974 -3.749,1.808 -3.749,4.22 v 0 c 0,1.666 1.25,2.548 2.581,2.548 v 0 c 2.539,0 3.425,-2.457 4.151,-4.775 v 0 h 0.805 l 0.082,5.794 h -0.485 l -0.805,-1.11 c -1.129,0.739 -2.661,1.158 -3.909,1.158 v 0 c -2.784,0 -4.998,-2.364 -4.998,-5.564 m -19.065,1.346 h -0.078 l -0.527,4.218 c -1.975,-0.419 -3.465,-1.158 -5.563,-1.437 v 0 -0.927 c 1.291,0 2.377,0.183 2.7,-1.484 v 0 c 0.204,-1.066 0.204,-4.311 0.204,-5.608 v 0 -5.703 c 0,-3.059 0.201,-4.171 -2.823,-4.402 v 0 -0.927 c 1.572,0.045 3.105,0.137 4.677,0.186 v 0 c 1.45,-0.049 2.942,-0.141 4.392,-0.186 v 0 0.927 c -3.185,0.231 -2.822,1.62 -2.822,4.68 v 0 7.184 c 0,3.384 2.015,6.212 5.161,6.212 v 0 c 3.827,0 3.708,-4.542 3.708,-7.741 v 0 -5.933 c 0,-3.059 0.201,-4.171 -2.823,-4.402 v 0 -0.927 c 1.573,0.045 3.103,0.137 4.678,0.186 v 0 c 1.45,-0.049 2.941,-0.141 4.393,-0.186 v 0 0.927 c -3.145,0.231 -2.823,1.62 -2.823,4.68 v 0 8.484 c 0,4.404 -2.175,6.397 -6.007,6.397 v 0 c -2.86,0 -5.037,-1.346 -6.447,-4.218 m -69.568,-6.953 c 0,-5.747 3.668,-9.829 8.666,-9.829 v 0 c 2.621,0 5.403,1.159 7.094,3.57 v 0 l -0.846,0.834 c -1.289,-1.714 -3.063,-2.92 -5.077,-2.92 v 0 c -4.556,0 -5.806,4.635 -5.806,9.085 v 0 c 0,4.08 1.331,9.179 5.684,9.179 v 0 c 1.491,0 1.815,-0.372 2.296,-1.763 v 0 c 0.284,-0.878 0.807,-1.805 1.775,-1.805 v 0 c 0.724,0 1.328,0.878 1.328,1.712 v 0 c 0,2.55 -3.665,3.108 -5.238,3.108 v 0 c -5.602,0 -9.876,-4.683 -9.876,-11.171 m -12.697,9.734 v -0.927 c 0.809,0.046 2.501,0.138 2.782,-1.021 v 0 c 0.162,-0.696 0.162,-4.263 0.162,-5.144 v 0 -6.63 c -0.041,-3.059 0.202,-4.171 -2.782,-4.402 v 0 -0.927 c 1.572,0.045 3.146,0.137 4.716,0.186 v 0 c 1.451,-0.049 2.944,-0.141 4.313,-0.186 v 0 0.927 c -3.183,0.231 -2.739,1.62 -2.82,4.68 v 0 14.881 z m -34.865,-8.81 c 0,-6.118 4.435,-10.753 9.675,-10.753 v 0 c 5.281,0 9.713,4.31 9.713,10.569 v 0 c 0,5.98 -4.716,10.431 -9.713,10.431 v 0 c -4.916,0 -9.675,-4.313 -9.675,-10.247 m 4.031,-0.184 c 0,4.034 1.089,9.364 5.482,9.364 v 0 c 4.758,0 5.846,-5.192 5.846,-9.64 v 0 c 0,-4.126 -1.088,-9.225 -5.481,-9.225 v 0 c -4.715,0 -5.847,5.099 -5.847,9.501 m -59.65,6.35 c 0,-1.019 0.644,-1.668 1.533,-1.668 v 0 c 1.005,0 1.531,1.019 1.612,2.04 v 0 c 0.119,2.457 1.772,2.642 3.786,2.642 v 0 c 3.306,0 3.55,-2.224 3.55,-5.377 v 0 c 0,-0.509 0.08,-1.113 -0.324,-1.345 v 0 l -3.992,-2.225 c -2.577,-1.344 -6.407,-3.012 -6.407,-6.904 v 0 c 0,-2.598 2.056,-4.082 4.191,-4.082 v 0 c 2.501,0 4.836,1.531 6.731,3.292 v 0 c 0.404,-1.853 1.813,-3.292 3.465,-3.292 v 0 c 1.494,0 2.983,1.576 3.63,3.106 v 0 l -0.767,0.464 c -0.442,-0.647 -0.847,-1.484 -1.651,-1.484 v 0 c -1.572,0 -1.411,3.431 -1.411,4.59 v 0 7.649 c 0,5.329 -2.056,6.675 -6.53,6.675 v 0 c -2.055,0 -7.416,-0.65 -7.416,-4.081 m 3.507,-11.727 c 0,3.709 4.596,5.516 7.011,6.86 v 0 -7.554 c -1.128,-1.251 -2.86,-2.643 -4.434,-2.643 v 0 c -1.65,0 -2.577,1.624 -2.577,3.337 m -21.845,12.05 c -0.808,2.783 -3.145,3.758 -5.523,3.758 v 0 c -2.62,0 -4.555,-1.391 -6.086,-3.758 v 0 l -0.445,3.758 c -1.974,-0.419 -3.465,-1.158 -5.56,-1.437 v 0 -0.927 c 1.29,0 2.378,0.183 2.7,-1.484 v 0 c 0.201,-1.066 0.201,-4.311 0.201,-5.608 v 0 -5.703 c 0,-3.059 0.201,-4.171 -2.822,-4.402 v 0 -0.927 c 1.534,0.045 3.065,0.137 4.595,0.186 v 0 c 1.451,-0.049 2.902,-0.141 4.355,-0.186 v 0 0.927 c -3.145,0.231 -2.663,1.62 -2.702,4.68 v 0 5.562 c 0,1.717 0,3.432 0.525,4.776 v 0 c 0.684,1.712 2.258,3.058 3.908,3.058 v 0 c 4.072,0 3.75,-4.588 3.75,-7.834 v 0 -5.84 c -0.041,-3.059 0.241,-4.171 -2.781,-4.402 v 0 -0.927 c 1.531,0.045 3.022,0.137 4.554,0.186 v 0 c 1.45,-0.049 2.943,-0.141 4.393,-0.186 v 0 0.927 c -3.185,0.231 -2.661,1.62 -2.741,4.68 v 0 5.562 c 0,1.717 0,3.432 0.525,4.776 v 0 c 0.685,1.712 2.256,3.058 3.908,3.058 v 0 c 4.07,0 3.748,-4.588 3.748,-7.834 v 0 -5.84 c -0.039,-3.059 0.203,-4.171 -2.781,-4.402 v 0 -0.927 c 1.492,0.045 2.984,0.137 4.476,0.186 v 0 c 1.489,-0.049 2.982,-0.141 4.475,-0.186 v 0 0.927 c -3.147,0.231 -2.702,1.62 -2.743,4.68 v 0 6.537 c 0,1.9 0,4.586 -1.088,6.118 v 0 c -1.169,1.668 -2.943,2.226 -4.716,2.226 v 0 c -2.578,0 -4.717,-1.301 -6.125,-3.758 m -40.508,-6.489 c 0,-6.118 4.433,-10.753 9.674,-10.753 v 0 c 5.278,0 9.713,4.31 9.713,10.569 v 0 c 0,5.98 -4.716,10.431 -9.713,10.431 v 0 c -4.92,0 -9.674,-4.313 -9.674,-10.247 m 4.03,-0.184 c 0,4.034 1.089,9.364 5.482,9.364 v 0 c 4.754,0 5.843,-5.192 5.843,-9.64 v 0 c 0,-4.126 -1.089,-9.225 -5.481,-9.225 v 0 c -4.716,0 -5.844,5.099 -5.844,9.501 m -49.173,6.35 c 0,-1.019 0.646,-1.668 1.531,-1.668 v 0 c 1.008,0 1.532,1.019 1.612,2.04 v 0 c 0.122,2.457 1.773,2.642 3.789,2.642 v 0 c 3.305,0 3.547,-2.224 3.547,-5.377 v 0 c 0,-0.509 0.081,-1.113 -0.321,-1.345 v 0 l -3.992,-2.225 c -2.577,-1.344 -6.407,-3.012 -6.407,-6.904 v 0 c 0,-2.598 2.054,-4.082 4.192,-4.082 v 0 c 2.497,0 4.834,1.531 6.73,3.292 v 0 c 0.402,-1.853 1.813,-3.292 3.467,-3.292 v 0 c 1.491,0 2.981,1.576 3.627,3.106 v 0 l -0.765,0.464 c -0.444,-0.647 -0.846,-1.484 -1.654,-1.484 v 0 c -1.571,0 -1.409,3.431 -1.409,4.59 v 0 7.649 c 0,5.329 -2.057,6.675 -6.53,6.675 v 0 c -2.056,0 -7.417,-0.65 -7.417,-4.081 m 3.508,-11.727 c 0,3.709 4.593,5.516 7.012,6.86 v 0 -7.554 c -1.129,-1.251 -2.861,-2.643 -4.434,-2.643 v 0 c -1.651,0 -2.578,1.624 -2.578,3.337 M 562.97,35.173 c -1.131,0.093 -2.22,0.139 -3.346,0.23 v 0 -0.928 c 3.303,-0.555 3.061,-1.62 3.061,-5.143 v 0 -6.211 c 0,-3.569 -2.337,-6.861 -5.521,-6.861 v 0 c -3.144,0 -3.346,3.708 -3.346,6.444 v 0 12.653 c -1.008,-0.045 -2.096,-0.139 -3.143,-0.184 v 0 c -1.131,0.045 -2.218,0.139 -3.345,0.184 v 0 -0.882 c 3.304,-0.555 3.063,-1.62 3.063,-5.143 v 0 -7.926 c 0,-4.078 1.491,-6.63 5.561,-6.63 v 0 c 2.701,0 5.281,1.808 6.731,4.358 v 0 l 0.847,-4.358 5.602,1.67 v 1.065 c -0.524,-0.045 -1.048,-0.137 -1.533,-0.137 v 0 c -1.488,0 -1.488,1.854 -1.488,3.105 v 0 14.924 c -1.008,-0.091 -2.098,-0.137 -3.143,-0.23 m -125.673,0 c -1.048,0.045 -2.056,0.139 -3.106,0.184 v 0 -0.927 c 0.846,-0.045 2.218,-0.323 2.218,-1.621 v 0 c 0,-1.205 -0.724,-3.199 -1.129,-4.311 v 0 l -3.023,-8.342 -2.58,7.091 c -0.441,1.251 -1.651,4.357 -1.651,5.562 v 0 c 0,1.482 1.893,1.388 2.457,1.621 v 0 0.927 c -1.53,-0.045 -3.022,-0.139 -4.553,-0.184 v 0 c -1.371,0.045 -2.74,0.139 -4.111,0.184 v 0 -0.927 c 0.483,0 1.45,-0.51 1.815,-0.972 v 0 c 0.483,-0.649 0.884,-1.808 1.168,-2.596 v 0 l 5.681,-15.251 -1.53,-3.942 c -0.484,-1.295 -1.169,-3.151 -1.816,-4.263 v 0 C 426.334,5.97 424.075,6.109 424.075,3.977 v 0 c 0,-0.072 0.006,-0.144 0.017,-0.214 v 0 h 2.645 c 0.919,1.156 1.576,3.128 1.932,4.109 v 0 l 8.386,22.248 0.523,1.343 c 0.645,1.577 0.685,2.922 2.38,2.967 v 0 0.927 c -0.889,-0.045 -1.776,-0.139 -2.661,-0.184"
         id="path6" />
    </clipPath>
    <clipPath
       clipPathUnits="userSpaceOnUse"
       id="clipPath8">
      <path
         d="M 0,131.915 H 612 V 0 H 0 Z"
         id="path8" />
    </clipPath>
    <clipPath
       clipPathUnits="userSpaceOnUse"
       id="clipPath10">
      <path
         d="M 0,131.915 H 612 V 0 H 0 Z"
         transform="translate(-113.3277,-121.9633)"
         id="path10" />
    </clipPath>
  </defs>
  <g
     id="layer-MC0"
     transform="translate(-11.222667,-4.3506742)">
    <path
       id="path1"
       d="m 0,0 c 0,-15.427 10.105,-34.165 35.103,-34.165 22.123,0 36.06,15.775 36.06,35.735 0,19.958 -13.501,32.597 -35.19,32.597 C 9.845,34.167 0,14.904 0,0 m 12.021,2.703 c 0,21.702 11.41,27.28 21.427,27.28 14.283,0 25.519,-12.115 25.519,-31.638 0,-25.19 -14.109,-28.153 -20.206,-28.153 -16.723,0 -26.74,14.381 -26.74,32.511 m 150.756,29.982 c -2.439,0 -7.927,0.261 -12.542,0.261 -1.308,0 -1.916,-0.174 -1.916,-0.784 0,-0.611 0.522,-0.785 1.48,-0.785 1.219,0 2.701,-0.087 3.397,-0.261 2.875,-0.61 3.57,-2.004 3.744,-4.968 0.175,-2.79 0.175,-5.229 0.175,-18.476 V -7.669 c 0,-8.019 0,-14.903 -0.436,-18.564 -0.347,-2.528 -0.785,-4.446 -2.525,-4.794 -0.785,-0.175 -1.828,-0.349 -3.136,-0.349 -0.126,0 -0.242,-0.003 -0.348,-0.011 -0.083,0.008 -0.169,0.011 -0.256,0.011 -1.044,0 -2.786,0.261 -5.401,1.308 -4.701,1.831 -8.622,5.752 -12.453,9.412 -3.398,3.224 -20.469,21.616 -23.604,25.711 2.96,3.138 16.112,16.212 18.811,18.827 3.747,3.661 6.708,5.491 9.409,6.536 1.654,0.611 3.831,0.959 5.052,0.959 0.871,0 1.307,0.174 1.307,0.785 0,0.61 -0.611,0.784 -1.483,0.784 -2.7,0 -7.49,-0.261 -10.19,-0.261 -2.351,0 -7.142,0.261 -8.971,0.261 -0.959,0 -1.393,-0.174 -1.393,-0.784 0,-0.523 0.347,-0.698 1.132,-0.872 0.871,-0.174 1.22,-0.784 1.22,-1.744 0,-1.48 -1.918,-3.66 -4.357,-6.535 C 116.968,20.047 104.252,7.061 101.29,3.835 h -0.436 v 3.837 c 0,13.247 0,15.686 0.174,18.476 0.176,3.05 0.873,4.531 3.224,4.968 1.046,0.174 1.567,0.261 2.438,0.261 0.698,0 1.22,0.174 1.22,0.785 0,0.61 -0.609,0.784 -1.83,0.784 -2.959,0 -8.448,-0.261 -10.538,-0.261 -2.09,0 -7.578,0.261 -12.195,0.261 -1.305,0 -1.915,-0.174 -1.915,-0.784 0,-0.611 0.523,-0.785 1.48,-0.785 1.22,0 2.7,-0.087 3.397,-0.261 2.874,-0.61 3.571,-2.004 3.746,-4.968 0.174,-2.79 0.174,-5.229 0.174,-18.476 V -7.669 c 0,-8.019 0,-14.903 -0.435,-18.564 -0.35,-2.528 -0.785,-4.446 -2.527,-4.794 -0.784,-0.175 -1.828,-0.349 -3.135,-0.349 -1.045,0 -1.393,-0.262 -1.393,-0.697 0,-0.611 0.608,-0.871 1.741,-0.871 3.484,0 8.972,0.26 10.975,0.26 2.177,0 7.666,-0.26 12.542,-0.26 0.959,0 1.655,0.26 1.655,0.871 0,0.435 -0.435,0.697 -1.134,0.697 -1.13,0 -3.047,0.174 -4.266,0.349 -2.178,0.348 -2.962,2.266 -3.135,4.707 -0.263,3.748 -0.263,10.632 -0.263,18.651 v 7.931 h 0.436 l 0.959,-1.308 c 1.828,-2.526 18.987,-22.66 22.819,-26.058 3.745,-3.314 6.097,-5.229 10.802,-5.668 1.829,-0.172 3.396,-0.172 6.009,-0.172 h 7.578 c 0.452,0 0.814,0.019 1.1,0.06 0.23,-0.041 0.5,-0.06 0.809,-0.06 3.484,0 8.972,0.26 10.975,0.26 2.264,0 7.752,-0.26 13.5,-0.26 0.958,0 1.656,0.26 1.656,0.871 0,0.435 -0.437,0.697 -1.394,0.697 -1.307,0 -3.224,0.174 -4.442,0.349 -2.614,0.348 -3.135,2.266 -3.397,4.707 -0.436,3.748 -0.436,10.632 -0.436,18.651 v 34.864 c 0,0.958 0.262,1.48 0.698,1.656 0.783,0.261 2.09,0.347 3.396,0.347 2.004,0 5.575,-0.523 8.709,-3.398 4.879,-4.358 5.141,-10.198 5.141,-13.074 0,-8.891 -6.796,-14.381 -11.673,-14.381 -1.828,0 -2.438,-0.263 -2.438,-0.958 0,-0.611 0.61,-0.698 1.044,-0.785 0.435,-0.088 1.394,-0.088 1.83,-0.088 12.368,0 21.426,8.716 21.426,21.094 0,4.618 -2.439,8.54 -4.354,10.371 -1.394,1.305 -5.314,4.967 -16.2,4.967 -4.008,0 -9.059,-0.261 -12.63,-0.261 M 368.572,16.299 c -7.317,-6.537 -8.968,-15.253 -8.968,-20.307 0,-7.147 2.003,-15.515 9.579,-21.877 6.968,-5.84 15.853,-8.019 26.304,-8.019 4.966,0 10.803,0.437 13.851,1.658 1.306,0.521 1.654,0.87 2.001,2.178 0.785,2.526 1.655,8.977 1.655,9.847 0,0.611 -0.35,1.309 -0.87,1.309 -0.61,0 -0.785,-0.35 -0.958,-1.483 -0.264,-1.394 -1.308,-3.485 -2.615,-4.968 -3.046,-3.398 -6.791,-3.92 -13.585,-3.92 -10.278,0 -23.865,8.365 -23.865,25.972 0,7.233 1.393,14.381 7.055,19.262 3.483,2.963 7.751,4.183 14.457,4.183 7.055,0 12.195,-1.832 14.807,-4.357 1.918,-1.92 2.875,-4.533 2.961,-6.887 0,-0.958 0.174,-1.567 0.785,-1.567 0.696,0 0.958,0.783 1.044,1.828 0.087,1.483 0.087,5.579 0.261,8.019 0.173,2.616 0.349,3.487 0.349,4.097 0,0.436 -0.263,0.785 -1.132,0.871 -2.263,0.263 -4.792,0.785 -7.665,1.22 -3.484,0.438 -6.359,0.785 -11.15,0.785 -11.408,0 -18.728,-2.964 -24.301,-7.844 M 204.057,-4.88 c 0,-13.16 9.059,-29.024 31.354,-29.024 19.774,0 32.142,13.336 32.142,30.332 0,16.995 -12.02,27.715 -31.357,27.715 -23.253,0 -32.139,-16.385 -32.139,-29.023 m 11.323,2.267 c 0,18.302 10.016,22.834 18.552,22.834 12.368,0 22.209,-10.11 22.209,-26.497 0,-21.091 -12.191,-23.618 -17.593,-23.618 -14.457,0 -23.168,12.027 -23.168,27.281 m 247.603,25.536 c -2.265,0 -4.965,0.175 -7.49,0.175 -0.871,0 -1.306,-0.175 -1.306,-0.697 0,-0.61 0.694,-0.698 1.391,-0.873 1.308,-0.261 1.658,-0.958 1.658,-1.655 0,-0.959 -0.35,-2.265 -1.133,-3.922 -1.132,-2.266 -10.452,-18.129 -11.41,-19.873 -1.305,2.093 -11.324,19.437 -12.717,21.703 -0.612,1.046 -0.96,1.916 -0.96,2.527 0,0.611 0.438,0.959 1.05,1.134 1.216,0.349 1.739,0.349 1.739,0.959 0,0.522 -0.436,0.697 -1.133,0.697 -3.485,0 -7.054,-0.175 -8.708,-0.175 -2.527,0 -8.276,0.175 -9.583,0.175 -0.956,0 -1.481,-0.175 -1.481,-0.697 0,-0.524 0.525,-0.785 1.132,-0.785 0.961,0 2.266,-0.437 3.225,-0.959 1.481,-0.784 3.046,-2.527 4.963,-5.23 2.7,-3.92 13.153,-20.219 13.674,-21.353 1.048,-2.179 1.744,-3.748 1.744,-7.757 v -6.101 c 0,-1.22 0,-4.27 -0.262,-7.407 -0.174,-2.179 -0.783,-3.575 -2.354,-3.924 -0.695,-0.174 -1.653,-0.261 -2.698,-0.261 -0.87,0 -1.219,-0.435 -1.219,-0.784 0,-0.612 0.61,-0.784 1.653,-0.784 2.876,0 8.013,0.26 9.93,0.26 2.092,0 7.229,-0.26 12.02,-0.26 1.047,0 1.655,0.26 1.655,0.784 0,0.349 -0.434,0.784 -1.306,0.784 -1.047,0 -2.702,0.087 -3.832,0.261 -2.264,0.349 -2.96,1.745 -3.134,3.924 -0.174,3.137 -0.174,6.187 -0.174,7.407 v 5.927 c 0,2.44 -0.174,4.705 0.958,7.408 1.392,3.138 12.367,20.742 14.892,23.708 1.655,2.003 2.353,2.701 4.007,3.485 1.131,0.523 2.525,0.872 3.308,0.872 0.873,0 1.482,0.349 1.482,0.872 0,0.435 -0.523,0.61 -1.394,0.61 -1.482,0 -6.532,-0.175 -8.187,-0.175 m -125.065,0 c -2.178,0 -7.403,0.175 -10.279,0.175 -1.219,0 -1.829,-0.175 -1.829,-0.61 0,-0.697 0.436,-0.872 1.221,-0.872 0.956,0 1.915,-0.088 2.787,-0.349 1.653,-0.523 2.438,-1.394 2.612,-3.922 0.088,-2.354 0.088,-4.444 0.088,-15.688 v -13.074 c 0,-7.146 0,-13.074 -0.348,-16.125 -0.262,-2.179 -0.699,-3.224 -2.267,-3.573 -0.696,-0.174 -1.564,-0.261 -2.698,-0.261 -0.959,0 -1.222,-0.435 -1.222,-0.784 0,-0.524 0.526,-0.784 1.482,-0.784 3.05,0 8.275,0.26 10.015,0.26 2.093,0 7.319,-0.26 12.371,-0.26 0.869,0 1.48,0.26 1.48,0.784 0,0.349 -0.35,0.784 -1.219,0.784 -1.133,0 -2.875,0.087 -3.922,0.261 -2.261,0.349 -2.784,1.482 -3.047,3.486 -0.348,3.138 -0.348,9.066 -0.348,16.212 V 1.657 c 0,11.244 0,13.334 0.173,15.688 0.175,2.615 0.785,3.66 2.875,4.009 0.871,0.174 1.48,0.262 2.265,0.262 0.785,0 1.222,0.175 1.222,0.872 0,0.435 -0.611,0.61 -1.568,0.61 -2.963,0 -7.925,-0.175 -9.844,-0.175 m -48.51,0 c -2.089,0 -6.969,0.175 -10.538,0.175 -1.134,0 -1.657,-0.175 -1.657,-0.697 0,-0.524 0.438,-0.785 1.308,-0.785 0.96,0 1.916,-0.088 2.526,-0.262 2.438,-0.697 3.136,-1.481 3.311,-4.009 0.085,-2.354 0.085,-4.444 0.085,-15.688 v -13.074 c 0,-6.798 0,-12.637 -0.349,-15.774 -0.259,-2.179 -0.697,-3.575 -2.264,-3.924 -0.696,-0.174 -1.568,-0.261 -2.698,-0.261 -0.958,0 -1.222,-0.435 -1.222,-0.784 0,-0.524 0.523,-0.784 1.481,-0.784 1.569,0 3.485,0.087 5.314,0.172 1.828,0 3.484,0.088 4.355,0.088 3.134,0 6.358,-0.088 10.189,-0.173 3.835,-0.175 8.274,-0.262 13.762,-0.262 4.008,0 4.357,0.347 4.879,2.004 0.608,2.179 1.132,7.671 1.132,8.543 0,0.87 -0.176,1.654 -0.695,1.654 -0.611,0 -0.785,-0.435 -0.872,-1.131 -0.174,-1.395 -0.958,-3.487 -1.915,-4.447 -1.919,-2.004 -4.879,-2.09 -8.974,-2.09 -5.921,0 -8.885,0.436 -10.189,1.569 -1.655,1.394 -1.655,6.099 -1.655,15.6 V 1.657 c 0,11.244 0,13.334 0.174,15.688 0.173,2.615 0.784,3.66 2.874,4.009 0.871,0.174 2.09,0.262 2.96,0.262 0.957,0 1.396,0.261 1.396,0.785 0,0.522 -0.523,0.697 -1.656,0.697 -2.963,0 -9.233,-0.175 -11.062,-0.175"
       style="display:inline;fill:#ffffff;fill-opacity:1;fill-rule:nonzero;stroke:none;stroke-opacity:1"
       transform="matrix(1.3333333,0,0,-1.3333333,174.02467,52.862267)"
       clip-path="url(#clipPath2)" />
    <path
       id="path5"
       d="M -12.099,-1.795 H 629.239 V 134.082 H -12.099 Z"
       style="display:inline;fill:#ffffff;fill-opacity:1;fill-rule:nonzero;stroke:none;stroke-opacity:1"
       transform="matrix(1.3333333,0,0,-1.3333333,0,175.88667)"
       clip-path="url(#clipPath6)" />
    <path
       id="path7"
       d="M 8.917,128.152 H 120.183 V 14.73 H 8.917 Z"
       style="display:inline;fill:none;stroke:#ffffff;stroke-width:1;stroke-linecap:butt;stroke-linejoin:miter;stroke-miterlimit:10;stroke-dasharray:none;stroke-opacity:1"
       transform="matrix(1.3333333,0,0,-1.3333333,0,175.88667)"
       clip-path="url(#clipPath8)" />
    <path
       id="path9"
       d="m 0,0 h -98.337 v -100.883 h 16.778 c -0.024,5.966 -0.391,12.805 -0.442,12.348 -0.269,0.135 -1.755,2.809 -2.024,2.943 0,0.27 -0.268,0.807 -0.403,0.807 -0.135,0.673 -0.269,1.344 -0.404,2.016 -0.268,0.134 -0.538,0.269 -0.806,0.404 v 2.825 c 1.154,0.756 0.871,1.819 1.613,2.42 h 0.807 c 0.27,0.402 0.537,0.805 0.807,1.208 h 0.806 c 0.135,0.269 2.285,1.614 2.42,1.614 v 1.611 c 0.537,0.404 1.076,0.809 1.614,1.213 v 6.452 h 0.403 c 0.134,0.673 0.268,1.347 0.403,2.017 0.965,0.187 1.269,0.468 2.017,0.806 0.245,2.74 1.502,4.838 2.419,6.856 v 1.212 c 0.27,0.134 0.538,0.269 0.808,0.404 v 0.805 c 2.544,4.841 8.336,10.083 8.469,10.083 0.27,0.403 0.538,0.807 0.807,1.21 h 0.806 c 0.135,0.269 0.27,0.539 0.404,0.807 0.538,0.134 1.075,0.269 1.614,0.404 0.537,0.672 1.075,1.344 1.613,2.017 h 0.403 c 0.493,0.761 -0.117,1.934 0.403,2.823 0.279,0.476 1.566,0.492 2.017,0.806 v 0.404 c 0.403,0.269 0.806,0.537 1.209,0.806 v 0.807 h 0.404 c 0.354,0.779 0.757,4.371 0.404,5.646 h -0.404 v 5.646 c 4.02,1.851 2.698,5.451 3.227,9.277 h -1.21 c 0.255,1.183 0.709,2.124 1.21,3.227 h 0.403 v 1.614 h 0.404 v 0.402 h -0.404 v 0.405 h 0.404 c 0.362,1.32 0.424,3.278 0.134,4.033 h 0.538 c -0.135,-1.748 0.268,-3.496 0.134,-5.244 h 0.403 v -1.21 h 0.404 c 0.134,-0.538 0.268,-1.075 0.403,-1.613 h 0.404 c 0.929,-2.595 -0.702,-6.038 -0.807,-8.067 h 0.807 c 0.133,-0.403 0.268,-0.807 0.403,-1.209 0.538,-0.404 1.075,-0.807 1.612,-1.21 0.135,-0.538 0.27,-1.077 0.405,-1.614 h 0.403 v -7.664 h -0.403 v -2.016 h 0.403 v -0.807 h 0.403 v -0.807 c 0.807,-0.402 1.614,-0.806 2.42,-1.209 0.135,-0.538 0.269,-1.075 0.403,-1.614 h 0.404 v -1.612 c 0.672,-0.539 1.344,-1.076 2.017,-1.614 v -0.403 h 0.806 c 0.134,-0.27 0.269,-0.538 0.403,-0.807 0.538,-0.135 0.055,-0.013 0.593,-0.148 0.134,0 8.127,-7.659 10.351,-13.484 l 0.525,-10e-4 c 0,0 2.648,-6.937 2.648,-7.341 0.537,-0.269 1.075,-0.537 1.613,-0.806 0.269,-1.209 0.538,-2.421 0.806,-3.63 h 0.807 v -2.017 h -0.403 c -0.135,-0.672 -0.269,-1.344 -0.404,-2.016 h 0.404 c 0.57,-1.803 1.213,-1.9 1.613,-3.63 0.802,-0.11 1.209,0.043 1.614,-0.404 0,-0.269 0.941,-1.21 1.21,-1.21 0.134,-0.268 0.268,-0.538 0.403,-0.806 0.538,-0.402 1.075,-0.806 1.613,-1.209 0.466,-0.68 0.012,-0.913 0.807,-1.613 v -4.035 h -0.403 c -0.27,-0.806 -0.539,-1.612 -0.807,-2.421 -0.269,0 -0.782,-1.902 -1.11,-3.116 -0.181,-0.668 0.125,-7.319 0.252,-11.771 H 0 Z"
       style="display:inline;fill:#ffffff;fill-opacity:1;fill-rule:nonzero;stroke:none"
       transform="matrix(1.3333333,0,0,-1.3333333,151.1036,13.268933)"
       clip-path="url(#clipPath10)" />
  </g>
</svg>
